<?xml version="1.0" encoding="iso-8859-1"?>
<!-- Generator: Adobe Illustrator 19.0.0, SVG Export Plug-In . SVG Version: 6.00 Build 0)  -->
<svg version="1.1" id="Capa_1" xmlns="http://www.w3.org/2000/svg" xmlns:xlink="http://www.w3.org/1999/xlink" x="0px" y="0px"
	 viewBox="0 0 465 465" style="enable-background:new 0 0 465 465;" xml:space="preserve">
<g>
	<path style="fill:#4FC153;" d="M198.426,206.256c11.714,22.667,23.811,46.084,24.719,107.43h48.682
		c-0.854-57.605-11.604-78.496-22.962-100.553c-12.162-23.621-24.738-48.046-24.738-115.339c0-9.237-0.023-26.031-0.023-26.032
		c-0.003-1.991,0.786-3.901,2.193-5.31c1.406-1.409,3.315-2.2,5.307-2.2h18.676v-2.5c0-4.142,3.357-7.5,7.5-7.5c0,0,0,0,0,0l0-8
		c0,0,0,0-0.001,0c-3.014,0-5.734-1.804-6.908-4.579C244.021,25.469,228.227,15,210.637,15h-12.869c-4.143,0-7.5-3.358-7.5-7.5h-15
		v90.293C175.268,161.445,186.517,183.211,198.426,206.256z M231.604,33.869c4.411,0,8,3.589,8,8s-3.589,8-8,8s-8-3.589-8-8
		S227.192,33.869,231.604,33.869z"/>
	<rect x="286.884" y="405" style="fill:#FF9926;" width="34.788" height="15"/>
	<path style="fill:#FF9926;" d="M45.471,420h22.501c4.143,0,7.5,3.358,7.5,7.5h15c0-4.142,3.357-7.5,7.5-7.5h110.23v-15H45.471V420z
		"/>
	<rect x="286.885" y="435" style="fill:#FECC33;" width="34.787" height="15"/>
	<path style="fill:#FECC33;" d="M67.972,435H45.471v15h162.731v-15H97.972c-4.143,0-7.5-3.358-7.5-7.5h-15
		C75.472,431.642,72.114,435,67.972,435z"/>
	<path style="fill:#0C80E4;" d="M160.268,97.793V15.227C96.313,19.104,45.471,72.215,45.471,136.944V390h162.731v-68.814
		c0-63.342-11.222-85.055-23.102-108.043C172.892,189.52,160.268,165.092,160.268,97.793z"/>
	<path style="fill:#0C80E4;" d="M286.884,390h34.788v-33.023c0-29.335-7.586-58.251-21.939-83.622
		c-1.949-3.446-0.869-7.774,2.378-9.93c-6.487-8.393-16.722-17.611-27.017-28.798c6.764,18.853,11.79,44.173,11.79,86.559
		L286.884,390z"/>
	<path style="fill:#4C4C4C;" d="M371.438,82.745c-30.44-23.534-70.804-36.494-113.657-36.494v8c4.142,0,7.499,3.358,7.499,7.5v2.609
		c37.7,1.09,72.281,10.396,98.041,26.483c30.986,19.35,48.688,47.57,51.188,81.608c0.014,0.185,0.012,0.367,0.013,0.549h5.008
		C419.529,138.773,402.45,106.719,371.438,82.745z"/>
	<path d="M363.32,90.843c-25.76-16.087-60.341-25.393-98.041-26.483v-2.609c0-4.142-3.357-7.5-7.499-7.5c0,0,0,0-0.001,0
		c-4.143,0-7.5,3.358-7.5,7.5v2.5h-18.676c-1.991,0-3.9,0.792-5.307,2.2c-1.407,1.409-2.196,3.319-2.193,5.31
		c0,0.001,0.023,16.795,0.023,26.032c0,67.292,12.576,91.718,24.738,115.339c11.358,22.058,22.108,42.948,22.962,100.553h-48.682
		c-0.909-61.346-13.005-84.763-24.719-107.43c-11.909-23.044-23.158-44.811-23.158-108.462V7.5c0-4.142-3.357-7.5-7.5-7.5
		C92.062,0,30.471,61.433,30.471,136.944V457.5c0,4.142,3.357,7.5,7.5,7.5h177.731c4.143,0,7.5-3.358,7.5-7.5V328.686h48.682
		l0.001,128.814c0,4.142,3.357,7.5,7.5,7.5h49.787c4.143,0,7.5-3.358,7.5-7.5V356.977c0-31.918-8.259-63.388-23.883-91.008
		c-2.04-3.605-6.617-4.875-10.221-2.835c-0.159,0.09-0.308,0.191-0.458,0.29c-3.248,2.157-4.328,6.484-2.378,9.93
		c14.354,25.371,21.939,54.287,21.939,83.622V390h-34.788l0-68.814c0-42.386-5.025-67.706-11.79-86.559
		c-3.926-10.941-8.437-19.706-12.892-28.36c-11.867-23.047-23.075-44.815-23.075-108.473c0-5.231-0.008-12.883-0.014-18.542h18.666
		c37.827,0,72.487,8.635,97.596,24.314c26.763,16.712,42.038,40.913,44.175,69.985c0.303,4.131,3.907,7.24,8.029,6.93
		c3.946-0.29,6.946-3.585,6.942-7.481c0-0.182,0.001-0.364-0.013-0.549C412.008,138.413,394.307,110.193,363.32,90.843z
		 M208.202,420H97.972c-4.143,0-7.5,3.358-7.5,7.5s3.357,7.5,7.5,7.5h110.23v15H45.471v-15h22.501c4.143,0,7.5-3.358,7.5-7.5
		s-3.357-7.5-7.5-7.5H45.471v-15h162.731V420z M208.202,390H45.471V136.944c0-64.729,50.842-117.84,114.797-121.717v82.567
		c0,67.298,12.624,91.726,24.833,115.349c11.88,22.988,23.102,44.701,23.102,108.043V390z M321.672,450h-34.787v-15h34.787V450z
		 M321.672,405v15h-34.787l0-15H321.672z"/>
	<path d="M231.604,49.869c4.411,0,8-3.589,8-8s-3.589-8-8-8s-8,3.589-8,8S227.192,49.869,231.604,49.869z"/>
	<path d="M380.611,70.878c-31.913-24.672-73.683-38.643-118.069-39.577C252.45,12.132,232.586,0,210.637,0h-12.869
		c-4.143,0-7.5,3.358-7.5,7.5s3.357,7.5,7.5,7.5h12.869c17.59,0,33.384,10.469,40.234,26.672c1.174,2.775,3.895,4.579,6.908,4.579
		c0,0,0,0,0,0c42.854,0,83.218,12.961,113.658,36.494c31.012,23.974,48.091,56.028,48.092,90.255v0.001c0,4.142,3.357,7.5,7.5,7.5
		s7.5-3.358,7.5-7.5C434.529,134.025,415.381,97.757,380.611,70.878z"/>
	<path d="M382.379,301.798c-3.364-2.412-8.052-1.642-10.465,1.725c-2.414,3.366-1.642,8.052,1.725,10.465
		c7.42,5.32,13.621,11.982,18.365,19.521c-14.329,4.715-24.707,18.217-24.707,34.104V457.5c0,4.142,3.357,7.5,7.5,7.5
		s7.5-3.358,7.5-7.5v-89.887c0-9.966,7.017-18.313,16.367-20.391c2.646,7.402,4.058,15.277,4.058,23.31c0,4.142,3.357,7.5,7.5,7.5
		s7.5-3.358,7.5-7.5C417.722,343.361,404.51,317.666,382.379,301.798z"/>
</g>
<g>
</g>
<g>
</g>
<g>
</g>
<g>
</g>
<g>
</g>
<g>
</g>
<g>
</g>
<g>
</g>
<g>
</g>
<g>
</g>
<g>
</g>
<g>
</g>
<g>
</g>
<g>
</g>
<g>
</g>
</svg>
